<svg xmlns="http://www.w3.org/2000/svg" width="112" height="112" viewBox="0 0 112 112" fill="none"><path d="M89.25 38.5V84C89.25 85.3924 88.6969 86.7278 87.7123 87.7123C86.7277 88.6969 85.3924 89.25 84 89.25H38.5C37.1076 89.25 35.7722 88.6969 34.7877 87.7123C33.8031 86.7278 33.25 85.3924 33.25 84C33.25 82.6076 33.8031 81.2723 34.7877 80.2877C35.7722 79.3032 37.1076 78.75 38.5 78.75H71.3125L24.2856 31.71C23.7972 31.2217 23.4099 30.6419 23.1456 30.0039C22.8813 29.3658 22.7452 28.6819 22.7452 27.9913C22.7452 26.5965 23.2993 25.2588 24.2856 24.2725C25.2719 23.2863 26.6095 22.7322 28.0043 22.7322C29.3991 22.7322 30.7368 23.2863 31.7231 24.2725L78.75 71.3125V38.5C78.75 37.1076 79.3031 35.7723 80.2877 34.7877C81.2722 33.8032 82.6076 33.25 84 33.25C85.3924 33.25 86.7277 33.8032 87.7123 34.7877C88.6969 35.7723 89.25 37.1076 89.25 38.5Z" fill="white"></path></svg>