<svg width="1920" height="267" viewBox="0 0 1920 267" fill="none" xmlns="http://www.w3.org/2000/svg">
<rect width="2616" height="109" transform="translate(-408.414) rotate(3.46382)" fill="#334155"/>
<path d="M-302.206 38.6876L-284.382 39.7664L-301.782 83.5952L-326.441 82.1026L-332.229 55.9131L-341.134 81.2133L-365.793 79.7207L-377.78 34.1132L-359.956 35.192L-352.603 67.3109L-340.983 36.3404L-321.179 37.5391L-313.379 69.6851L-302.206 38.6876ZM-235.939 55.5221L-266.603 53.666L-266.854 57.8184L-236.19 59.6745L-236.848 70.5346L-267.511 68.6785L-267.763 72.8309L-237.099 74.687L-237.872 87.4636L-285.146 84.6022L-282.439 39.884L-235.166 42.7454L-235.939 55.5221ZM-185.731 65.5498C-182.004 68.5966 -179.441 72.8552 -179.735 77.7103C-180.179 85.0569 -184.943 90.6673 -195.101 90.0525L-235.986 87.5778L-233.279 42.8596L-194.31 45.2184C-184.153 45.8332 -181.301 50.6222 -181.711 57.3938C-181.885 60.2686 -183.404 63.126 -185.731 65.5498ZM-217.327 54.7251L-217.621 59.5802L-202.289 60.5083C-200.628 60.6088 -198.583 60.7325 -198.437 58.305C-198.29 55.8774 -200.334 55.7537 -201.995 55.6531L-217.327 54.7251ZM-200.115 77.5667C-198.454 77.6673 -196.41 77.791 -196.267 75.4273C-196.124 73.0636 -198.168 72.9399 -199.829 72.8394L-218.355 71.718L-218.641 76.4454L-200.115 77.5667ZM-117.087 49.8926C-106.29 50.5461 -96.5661 58.3158 -97.4863 73.52C-98.4066 88.7242 -108.997 95.2643 -119.793 94.6108L-153.013 92.6001L-150.306 47.8819L-117.087 49.8926ZM-124.053 80.2472C-120.476 80.4637 -114.599 80.8194 -114.096 72.5146C-113.593 64.2098 -119.471 63.8541 -123.048 63.6376L-134.547 62.9415L-135.552 79.5511L-124.053 80.2472ZM-47.7209 66.9147L-78.3847 65.0586L-78.6361 69.211L-47.9722 71.0671L-48.6295 81.9272L-79.2934 80.0711L-79.5448 84.2235L-48.8809 86.0796L-49.6542 98.8562L-96.9277 95.9948L-94.221 51.2766L-46.9475 54.1381L-47.7209 66.9147ZM-47.4514 83.1526L-30.8418 84.158C-30.9733 86.33 -29.018 87.923 -18.4773 88.5611C-8.63927 89.1565 -7.13129 88.6067 -7.03076 86.9457C-6.91475 85.0292 -8.3686 84.6847 -18.8261 83.7312C-38.9745 81.8704 -46.5033 78.0806 -45.873 67.6677C-45.2775 57.8297 -35.3759 54.1973 -17.7442 55.2645C-0.304128 56.3202 9.27866 61.1319 8.58651 72.567L-8.02309 71.5616C-7.88002 69.198 -11.6821 68.4549 -19.7952 67.9638C-27.589 67.4921 -29.2092 67.7787 -29.3136 69.5035C-29.418 71.2284 -27.8171 71.2612 -18.1301 72.2322C-0.540875 74.0022 10.3097 75.8772 9.60204 87.5678C8.85576 99.8972 -1.55501 102.409 -19.8895 101.299C-38.2239 100.189 -48.2557 96.4403 -47.4514 83.1526ZM29.9418 58.7921L27.235 103.51L10.6254 102.505L13.3322 57.7867L29.9418 58.7921ZM56.4696 89.8275L57.011 80.8839L86.0139 82.6394L84.5407 106.979L74.9582 106.399L74.135 99.8732C70.0991 104.053 64.0594 106.38 54.6686 105.812C38.1868 104.814 28.9289 96.7522 29.8724 81.1648C30.8121 65.6412 40.9708 58.8185 59.3692 59.9321C77.2564 61.0148 86.2044 67.8399 86.1686 80.0841L69.1757 79.0555C68.676 76.7171 65.5456 74.4117 58.5185 73.9864C48.6805 73.3909 46.7682 77.4428 46.4434 82.8089C46.1147 88.239 47.5457 93.1985 57.3198 93.7901C63.7081 94.1768 67.6591 93.5183 68.4797 90.5545L56.4696 89.8275ZM130.206 64.861L146.816 65.8663L144.109 110.584L122.389 109.27L104.693 81.7183L103.096 108.102L86.4866 107.097L89.1933 62.3785L110.914 63.6932L128.609 91.2447L130.206 64.861Z" fill="white"/>
<path fill-rule="evenodd" clip-rule="evenodd" d="M177.397 107.59L176.915 107.561C177.192 102.969 175.964 98.8658 173.23 95.2562C170.496 91.6465 167.162 89.7211 163.223 89.4828L163.258 88.9198C167.196 89.1582 170.738 87.6491 173.888 84.387C177.037 81.1249 178.752 77.2023 179.029 72.6249L179.512 72.6542C179.234 77.2458 180.463 81.3493 183.196 84.959C185.93 88.5687 189.265 90.494 193.203 90.7324L193.169 91.2953C189.233 91.0571 185.688 92.5661 182.539 95.8196C179.39 99.0732 177.675 102.996 177.397 107.59Z" fill="#DCC3FC"/>
<path d="M266.65 95.4966C265.71 111.02 256.757 118.044 237.145 116.857C217.469 115.666 209.489 107.681 210.433 92.0939L211.782 69.7987L228.392 70.8041L227.042 93.0993C226.752 97.8905 228.222 102.211 237.996 102.803C247.77 103.394 249.754 99.2186 250.04 94.4913L251.39 72.1961L267.999 73.2015L266.65 95.4966ZM287.159 74.3612L284.452 119.079L267.843 118.074L270.55 73.3558L287.159 74.3612Z" fill="white"/>
<path fill-rule="evenodd" clip-rule="evenodd" d="M318.14 116.109L317.658 116.08C317.936 111.488 316.707 107.385 313.973 103.775C311.239 100.166 307.905 98.2402 303.967 98.0018L304.001 97.4389C307.939 97.6773 311.481 96.1681 314.631 92.906C317.781 89.6439 319.495 85.7214 319.772 81.144L320.255 81.1732C319.977 85.7648 321.206 89.8684 323.94 93.478C326.673 97.0877 330.008 99.0131 333.946 99.2514L333.912 99.8144C329.976 99.5761 326.431 101.085 323.282 104.339C320.133 107.592 318.418 111.515 318.14 116.109Z" fill="#DCC3FC"/>
<path d="M400.072 101.008C403.799 104.055 406.362 108.313 406.069 113.168C405.624 120.515 400.86 126.125 390.703 125.511L349.818 123.036L352.524 78.3176L391.493 80.6763C401.65 81.2912 404.502 86.0802 404.092 92.8518C403.918 95.7266 402.399 98.584 400.072 101.008ZM368.477 90.1831L368.183 95.0382L383.515 95.9662C385.176 96.0668 387.22 96.1905 387.367 93.763C387.514 91.3354 385.47 91.2117 383.809 91.1111L368.477 90.1831ZM385.688 113.025C387.349 113.125 389.393 113.249 389.536 110.885C389.679 108.522 387.635 108.398 385.974 108.297L367.448 107.176L367.162 111.903L385.688 113.025ZM461.139 102.075C460.745 108.591 457.418 113.776 452.325 116.353L459.469 129.673L439.793 128.482L434.23 117.63L424.456 117.038L423.822 127.515L407.213 126.51L409.919 81.7917L445.055 83.9184C455.212 84.5332 461.743 92.1096 461.139 102.075ZM425.678 96.8513L425.307 102.984L440.639 103.912C442.3 104.013 444.344 104.136 444.53 101.07C444.715 98.0036 442.671 97.8799 441.01 97.7793L425.678 96.8513ZM504.165 132.378L501.586 124.143L482.549 122.991L478.995 130.855L460.725 129.749L481.957 86.1521L506.616 87.6446L522.436 133.484L504.165 132.378ZM487.589 111.755L497.938 112.381L493.591 98.3973L487.589 111.755ZM567.469 91.328L584.079 92.3333L581.372 137.051L559.652 135.737L541.956 108.185L540.359 134.569L523.749 133.564L526.456 88.8455L548.176 90.1602L565.872 117.712L567.469 91.328ZM619.878 94.5002C630.674 95.1537 640.398 102.923 639.478 118.128C638.558 133.332 627.967 139.872 617.171 139.218L583.952 137.208L586.658 92.4895L619.878 94.5002ZM612.911 124.855C616.488 125.071 622.366 125.427 622.868 117.122C623.371 108.817 617.494 108.462 613.916 108.245L602.417 107.549L601.412 124.159L612.911 124.855ZM659.353 96.8896L656.646 141.608L640.036 140.602L642.743 95.8842L659.353 96.8896ZM702.909 99.526L719.518 100.531L716.811 145.249L695.091 143.935L677.395 116.383L675.799 142.767L659.189 141.762L661.896 97.0435L683.616 98.3582L701.312 125.91L702.909 99.526ZM746.083 131.569L746.624 122.625L775.627 124.381L774.154 148.72L764.572 148.14L763.748 141.615C759.712 145.794 753.673 148.122 744.282 147.553C727.8 146.556 718.542 138.494 719.486 122.906C720.425 107.383 730.584 100.56 748.982 101.674C766.87 102.756 775.818 109.581 775.782 121.826L758.789 120.797C758.289 118.459 755.159 116.153 748.132 115.728C738.294 115.132 736.382 119.184 736.057 124.55C735.728 129.981 737.159 134.94 746.933 135.532C753.321 135.918 757.272 135.26 758.093 132.296L746.083 131.569Z" fill="white"/>
<path fill-rule="evenodd" clip-rule="evenodd" d="M807.244 145.714L806.761 145.685C807.039 141.093 805.81 136.99 803.077 133.38C800.343 129.771 797.008 127.845 793.07 127.607L793.104 127.044C797.042 127.282 800.585 125.773 803.734 122.511C806.884 119.249 808.599 115.326 808.876 110.749L809.358 110.778C809.08 115.37 810.309 119.473 813.043 123.083C815.777 126.693 819.111 128.618 823.049 128.856L823.015 129.419C819.08 129.181 815.535 130.69 812.386 133.944C809.237 137.197 807.522 141.12 807.244 145.714Z" fill="#DCC3FC"/>
<path d="M896.496 133.621C895.557 149.144 886.604 156.168 866.992 154.981C847.316 153.79 839.336 145.805 840.279 130.218L841.629 107.923L858.238 108.928L856.889 131.223C856.599 136.014 858.069 140.335 867.843 140.927C877.617 141.518 879.601 137.343 879.887 132.615L881.236 110.32L897.846 111.325L896.496 133.621ZM897.051 156.159L919.549 135.08L899.757 111.441L921.478 112.756L931.948 126.213L943.965 114.117L965.685 115.432L943.186 136.511L962.978 160.15L941.258 158.835L930.788 145.378L918.771 157.474L897.051 156.159Z" fill="white"/>
<path fill-rule="evenodd" clip-rule="evenodd" d="M995.9 157.133L995.417 157.104C995.695 152.512 994.466 148.409 991.733 144.799C988.999 141.189 985.665 139.264 981.726 139.026L981.76 138.463C985.699 138.701 989.241 137.192 992.391 133.93C995.54 130.668 997.255 126.745 997.532 122.168L998.015 122.197C997.737 126.789 998.966 130.892 1001.7 134.502C1004.43 138.112 1007.77 140.037 1011.71 140.275L1011.67 140.838C1007.74 140.6 1004.19 142.109 1001.04 145.363C997.893 148.616 996.178 152.539 995.9 157.133Z" fill="#DCC3FC"/>
<path d="M1072.69 144.349C1076.59 146.701 1078.7 149.907 1078.43 154.315C1077.8 164.792 1068.61 167.185 1052.9 166.234C1037.38 165.294 1027.08 161.721 1027.96 147.092L1044.57 148.097C1044.36 151.611 1048.19 151.843 1054.39 152.218C1060.27 152.574 1061.86 152.671 1062 150.371C1062.17 147.56 1060.58 147.463 1048.31 146.721L1048.77 139.055C1061.04 139.797 1062.64 139.894 1062.81 137.083C1062.95 134.783 1061.35 134.687 1055.47 134.331C1049.27 133.956 1045.44 133.724 1045.23 137.237L1028.62 136.232C1029.51 121.603 1040.16 119.298 1055.68 120.238C1071.4 121.189 1080.23 124.673 1079.59 135.15C1079.33 139.558 1076.84 142.485 1072.69 144.349ZM1115.53 124.502C1126.33 125.155 1136.05 132.925 1135.13 148.129C1134.21 163.333 1123.62 169.873 1112.83 169.22L1079.61 167.209L1082.31 122.491L1115.53 124.502ZM1108.57 154.856C1112.14 155.073 1118.02 155.429 1118.52 147.124C1119.03 138.819 1113.15 138.463 1109.57 138.247L1098.07 137.551L1097.07 154.16L1108.57 154.856ZM1232.46 131.579L1229.75 176.297L1213.14 175.292L1214.43 154.019L1200.94 174.553L1190.08 173.896L1179.17 151.884L1177.88 173.157L1161.27 172.152L1163.98 127.434L1184.42 128.671L1196.67 155.06L1212.02 130.342L1232.46 131.579ZM1259.13 178.717C1239.46 177.526 1231.48 169.541 1232.42 153.954C1233.36 138.43 1242.24 131.53 1261.92 132.721C1281.53 133.908 1289.57 141.897 1288.64 157.356C1287.7 172.88 1278.75 179.904 1259.13 178.717ZM1259.98 164.663C1269.76 165.254 1271.74 161.078 1272.03 156.351C1272.31 151.688 1270.91 147.371 1261.07 146.775C1251.23 146.18 1249.32 150.232 1249.03 154.959C1248.74 159.75 1250.21 164.071 1259.98 164.663ZM1325.15 137.19C1335.94 137.843 1345.67 145.613 1344.75 160.817C1343.83 176.021 1333.24 182.561 1322.44 181.908L1289.22 179.897L1291.93 135.179L1325.15 137.19ZM1318.18 167.544C1321.76 167.761 1327.64 168.116 1328.14 159.812C1328.64 151.507 1322.76 151.151 1319.19 150.934L1307.69 150.238L1306.68 166.848L1318.18 167.544ZM1394.51 154.212L1363.85 152.356L1363.6 156.508L1394.26 158.364L1393.61 169.224L1362.94 167.368L1362.69 171.52L1393.35 173.377L1392.58 186.153L1345.31 183.292L1348.01 138.574L1395.29 141.435L1394.51 154.212ZM1411.93 173.218L1441.31 174.997L1440.46 189.051L1394.47 186.267L1397.17 141.549L1413.78 142.555L1411.93 173.218ZM1461.7 145.455L1458.99 190.173L1442.38 189.167L1445.09 144.449L1461.7 145.455ZM1505.25 148.091L1521.86 149.096L1519.15 193.814L1497.43 192.5L1479.74 164.948L1478.14 191.332L1461.53 190.327L1464.24 145.609L1485.96 146.923L1503.65 174.475L1505.25 148.091ZM1548.43 180.134L1548.97 171.19L1577.97 172.946L1576.5 197.285L1566.91 196.705L1566.09 190.18C1562.06 194.359 1556.02 196.687 1546.63 196.118C1530.14 195.121 1520.89 187.059 1521.83 171.471C1522.77 155.948 1532.93 149.125 1551.33 150.239C1569.21 151.321 1578.16 158.146 1578.13 170.391L1561.13 169.362C1560.63 167.024 1557.5 164.718 1550.48 164.293C1540.64 163.697 1538.72 167.749 1538.4 173.115C1538.07 178.546 1539.5 183.505 1549.28 184.097C1555.66 184.483 1559.62 183.825 1560.44 180.861L1548.43 180.134Z" fill="white"/>
<path fill-rule="evenodd" clip-rule="evenodd" d="M1608.78 194.23L1608.29 194.201C1608.57 189.609 1607.34 185.506 1604.61 181.896C1601.88 178.286 1598.54 176.361 1594.6 176.123L1594.64 175.56C1598.58 175.798 1602.12 174.289 1605.27 171.027C1608.42 167.765 1610.13 163.842 1610.41 159.265L1610.89 159.294C1610.61 163.886 1611.84 167.989 1614.58 171.599C1617.31 175.208 1620.64 177.134 1624.58 177.372L1624.55 177.935C1620.61 177.697 1617.07 179.206 1613.92 182.459C1610.77 185.713 1609.06 189.636 1608.78 194.23Z" fill="#DCC3FC"/>
<path d="M1718.1 160.974L1735.92 162.053L1718.52 205.882L1693.86 204.389L1688.07 178.2L1679.17 203.5L1654.51 202.007L1642.52 156.4L1660.35 157.479L1667.7 189.598L1679.32 158.627L1699.12 159.826L1706.92 191.972L1718.1 160.974ZM1784.36 177.809L1753.7 175.953L1753.45 180.105L1784.11 181.961L1783.46 192.821L1752.79 190.965L1752.54 195.118L1783.2 196.974L1782.43 209.75L1735.16 206.889L1737.86 162.171L1785.14 165.032L1784.36 177.809ZM1834.57 187.836C1838.3 190.883 1840.86 195.142 1840.57 199.997C1840.12 207.344 1835.36 212.954 1825.2 212.339L1784.32 209.864L1787.02 165.146L1825.99 167.505C1836.15 168.12 1839 172.909 1838.59 179.68C1838.42 182.555 1836.9 185.413 1834.57 187.836ZM1802.98 177.012L1802.68 181.867L1818.01 182.795C1819.68 182.895 1821.72 183.019 1821.87 180.592C1822.01 178.164 1819.97 178.04 1818.31 177.94L1802.98 177.012ZM1820.19 199.853C1821.85 199.954 1823.89 200.078 1824.04 197.714C1824.18 195.35 1822.13 195.227 1820.47 195.126L1801.95 194.005L1801.66 198.732L1820.19 199.853ZM1903.22 172.179C1914.01 172.833 1923.74 180.602 1922.82 195.807C1921.9 211.011 1911.31 217.551 1900.51 216.897L1867.29 214.887L1870 170.169L1903.22 172.179ZM1896.25 202.534C1899.83 202.75 1905.7 203.106 1906.21 194.801C1906.71 186.496 1900.83 186.141 1897.25 185.924L1885.76 185.228L1884.75 201.838L1896.25 202.534ZM1972.58 189.201L1941.92 187.345L1941.67 191.498L1972.33 193.354L1971.67 204.214L1941.01 202.358L1940.76 206.51L1971.42 208.366L1970.65 221.143L1923.38 218.281L1926.08 173.563L1973.36 176.425L1972.58 189.201ZM1972.85 205.439L1989.46 206.445C1989.33 208.617 1991.28 210.21 2001.83 210.848C2011.66 211.443 2013.17 210.893 2013.27 209.232C2013.39 207.316 2011.93 206.971 2001.48 206.018C1981.33 204.157 1973.8 200.367 1974.43 189.954C1975.03 180.116 1984.93 176.484 2002.56 177.551C2020 178.607 2029.58 183.419 2028.89 194.854L2012.28 193.848C2012.42 191.485 2008.62 190.742 2000.51 190.25C1992.71 189.779 1991.09 190.065 1990.99 191.79C1990.88 193.515 1992.49 193.548 2002.17 194.519C2019.76 196.289 2030.61 198.164 2029.9 209.854C2029.16 222.184 2018.75 224.695 2000.41 223.586C1982.08 222.476 1972.05 218.727 1972.85 205.439ZM2050.24 181.079L2047.54 225.797L2030.93 224.791L2033.63 180.073L2050.24 181.079ZM2076.77 212.114L2077.31 203.171L2106.32 204.926L2104.84 229.265L2095.26 228.685L2094.44 222.16C2090.4 226.34 2084.36 228.667 2074.97 228.099C2058.49 227.101 2049.23 219.039 2050.18 203.451C2051.11 187.928 2061.27 181.105 2079.67 182.219C2097.56 183.301 2106.51 190.127 2106.47 202.371L2089.48 201.342C2088.98 199.004 2085.85 196.698 2078.82 196.273C2068.98 195.678 2067.07 199.729 2066.75 205.096C2066.42 210.526 2067.85 215.485 2077.62 216.077C2084.01 216.463 2087.96 215.805 2088.78 212.841L2076.77 212.114ZM2150.51 187.148L2167.12 188.153L2164.41 232.871L2142.69 231.556L2125 204.005L2123.4 230.389L2106.79 229.383L2109.5 184.665L2131.22 185.98L2148.91 213.531L2150.51 187.148Z" fill="white"/>
<rect width="2828" height="134" transform="translate(-92 111.097) rotate(-2.1906)" fill="#9444F1"/>
<path d="M27.4 148.16L47.4733 147.392L32.8519 198.389L5.08019 199.451L-4.30287 170.773L-11.4677 200.084L-39.2394 201.146L-57.7138 151.416L-37.6405 150.648L-25.8485 185.791L-16.2721 149.831L6.0316 148.978L18.3272 184.101L27.4 148.16ZM103.454 159.662L68.9188 160.983L69.0977 165.659L103.632 164.338L104.1 176.569L69.5656 177.89L69.7444 182.567L104.279 181.246L104.83 195.635L51.5885 197.672L49.6621 147.309L102.903 145.272L103.454 159.662ZM160.774 165.323C165.284 168.32 168.626 172.804 168.835 178.272C169.151 186.546 164.44 193.355 153.001 193.793L106.954 195.554L105.028 145.191L148.916 143.512C160.355 143.074 164.079 148.12 164.371 155.746C164.495 158.984 163.11 162.351 160.774 165.323ZM124.202 156.706L124.411 162.174L141.679 161.514C143.549 161.442 145.851 161.354 145.747 158.62C145.642 155.886 143.34 155.974 141.469 156.046L124.202 156.706ZM146.002 180.37C147.873 180.299 150.175 180.211 150.074 177.549C149.972 174.887 147.669 174.975 145.799 175.046L124.934 175.844L125.138 181.168L146.002 180.37ZM235.888 140.185C248.047 139.72 259.795 147.341 260.45 164.464C261.105 181.588 249.973 190.083 237.814 190.548L200.402 191.979L198.475 141.616L235.888 140.185ZM231.453 174.94C235.482 174.786 242.101 174.533 241.743 165.18C241.386 155.826 234.766 156.08 230.737 156.234L217.787 156.729L218.502 175.435L231.453 174.94ZM315.431 151.553L280.897 152.874L281.075 157.551L315.61 156.23L316.078 168.461L281.543 169.782L281.722 174.458L316.257 173.137L316.807 187.527L263.566 189.563L261.64 139.2L314.881 137.164L315.431 151.553ZM317.533 169.702L336.239 168.986C336.333 171.433 338.698 172.999 350.57 172.545C361.65 172.121 363.277 171.339 363.205 169.468C363.123 167.31 361.457 167.085 349.644 167.177C326.881 167.327 318.032 163.919 317.584 152.191C317.16 141.111 327.842 135.947 347.7 135.188C367.341 134.436 378.603 138.761 379.095 151.64L360.389 152.355C360.287 149.693 355.948 149.283 346.811 149.632C338.034 149.968 336.251 150.468 336.326 152.411C336.4 154.354 338.196 154.213 349.148 154.226C369.036 154.258 381.391 155.154 381.895 168.321C382.426 182.207 371.05 186.172 350.401 186.962C329.752 187.752 318.105 184.667 317.533 169.702ZM401.476 133.851L403.403 184.214L384.696 184.93L382.77 134.567L401.476 133.851ZM434.615 165.656L434.23 155.583L466.894 154.334L467.942 181.746L457.15 182.158L455.505 174.944C451.45 180.071 444.947 183.346 434.371 183.75C415.808 184.46 404.55 176.461 403.879 158.906C403.21 141.422 413.827 132.658 434.547 131.866C454.693 131.095 465.467 137.744 466.784 151.456L447.646 152.188C446.827 149.625 443.067 147.391 435.153 147.694C424.073 148.118 422.381 152.866 422.612 158.91C422.846 165.025 424.998 170.419 436.006 169.998C443.201 169.722 447.551 168.547 448.141 165.138L434.615 165.656ZM514.398 129.532L533.104 128.816L535.031 179.179L510.568 180.115L487.704 151.232L488.84 180.946L470.134 181.662L468.208 131.299L492.67 130.363L515.534 159.246L514.398 129.532Z" fill="white"/>
<path fill-rule="evenodd" clip-rule="evenodd" d="M567.991 170.413L567.508 170.431C567.332 165.835 565.705 161.872 562.629 158.55C559.553 155.227 556.045 153.639 552.103 153.79L552.081 153.227C556.023 153.076 559.4 151.225 562.213 147.668C565.026 144.112 566.346 140.039 566.17 135.457L566.653 135.439C566.829 140.035 568.457 143.998 571.533 147.32C574.609 150.643 578.117 152.231 582.059 152.08L582.081 152.643C578.141 152.794 574.762 154.645 571.948 158.193C569.135 161.741 567.815 165.813 567.991 170.413Z" fill="#DCC3FC"/>
<path d="M662.8 149.001C663.469 166.485 654.225 175.34 632.137 176.185C609.977 177.033 600.158 168.978 599.487 151.423L598.526 126.314L617.233 125.598L618.193 150.708C618.399 156.104 620.524 160.778 631.532 160.357C642.54 159.936 644.298 155.041 644.094 149.717L643.134 124.607L661.84 123.892L662.8 149.001ZM683.418 123.066L685.345 173.429L666.639 174.145L664.712 123.782L683.418 123.066Z" fill="white"/>
<path fill-rule="evenodd" clip-rule="evenodd" d="M717.881 164.679L717.398 164.698C717.222 160.101 715.595 156.139 712.519 152.816C709.443 149.493 705.935 147.906 701.992 148.057L701.971 147.493C705.913 147.342 709.29 145.491 712.103 141.935C714.915 138.378 716.235 134.306 716.06 129.723L716.543 129.705C716.719 134.302 718.346 138.264 721.422 141.587C724.498 144.91 728.006 146.497 731.949 146.346L731.97 146.91C728.03 147.061 724.651 148.911 721.838 152.459C719.025 156.008 717.705 160.08 717.881 164.679Z" fill="#DCC3FC"/>
<path d="M804.162 140.712C808.672 143.71 812.014 148.193 812.223 153.661C812.539 161.935 807.828 168.744 796.389 169.182L750.342 170.943L748.416 120.58L792.304 118.901C803.743 118.464 807.467 123.509 807.759 131.135C807.883 134.373 806.498 137.74 804.162 140.712ZM767.59 132.096L767.799 137.564L785.067 136.903C786.937 136.831 789.24 136.743 789.135 134.009C789.03 131.275 786.728 131.363 784.857 131.435L767.59 132.096ZM789.39 155.76C791.261 155.688 793.563 155.6 793.462 152.938C793.36 150.276 791.057 150.364 789.187 150.435L768.322 151.234L768.526 156.558L789.39 155.76ZM872.647 135.138C872.927 142.477 869.777 148.65 864.361 152.099L873.836 166.219L851.676 167.067L844.245 155.535L833.238 155.956L833.689 167.755L814.983 168.471L813.056 118.107L852.627 116.594C864.067 116.156 872.217 123.914 872.647 135.138ZM832.368 133.22L832.632 140.127L849.899 139.467C851.77 139.395 854.072 139.307 853.94 135.854C853.808 132.4 851.506 132.488 849.635 132.56L832.368 133.22ZM924.174 164.294L920.374 155.361L898.933 156.181L895.827 165.378L875.25 166.165L894.188 115.004L921.96 113.942L944.751 163.507L924.174 164.294ZM903.33 143.043L914.986 142.597L908.569 127.423L903.33 143.043ZM990.494 111.32L1009.2 110.605L1011.13 160.968L986.665 161.903L963.8 133.02L964.937 162.735L946.23 163.45L944.304 113.087L968.766 112.151L991.631 141.034L990.494 111.32ZM1049.52 109.062C1061.68 108.597 1073.43 116.218 1074.08 133.341C1074.74 150.465 1063.6 158.96 1051.44 159.425L1014.03 160.857L1012.11 110.493L1049.52 109.062ZM1045.08 143.817C1049.11 143.663 1055.73 143.41 1055.37 134.057C1055.02 124.704 1048.4 124.957 1044.37 125.111L1031.42 125.606L1032.13 144.313L1045.08 143.817ZM1093.98 107.362L1095.9 157.725L1077.2 158.44L1075.27 108.077L1093.98 107.362ZM1143.03 105.485L1161.74 104.77L1163.66 155.133L1139.2 156.069L1116.34 127.186L1117.47 156.9L1098.77 157.615L1096.84 107.252L1121.3 106.316L1144.17 135.2L1143.03 105.485ZM1194.92 136.573L1194.53 126.5L1227.2 125.251L1228.24 152.663L1217.45 153.075L1215.81 145.861C1211.75 150.988 1205.25 154.263 1194.67 154.667C1176.11 155.377 1164.85 147.378 1164.18 129.823C1163.51 112.339 1174.13 103.575 1194.85 102.783C1215 102.012 1225.77 108.661 1227.09 122.373L1207.95 123.105C1207.13 120.542 1203.37 118.308 1195.46 118.611C1184.38 119.035 1182.68 123.783 1182.91 129.827C1183.15 135.942 1185.3 141.336 1196.31 140.915C1203.5 140.64 1207.85 139.464 1208.44 136.055L1194.92 136.573Z" fill="white"/>
<path fill-rule="evenodd" clip-rule="evenodd" d="M1260.48 143.924L1260 143.942C1259.83 139.346 1258.2 135.383 1255.12 132.06C1252.05 128.738 1248.54 127.15 1244.6 127.301L1244.57 126.737C1248.52 126.587 1251.89 124.736 1254.71 121.179C1257.52 117.623 1258.84 113.55 1258.66 108.968L1259.15 108.949C1259.32 113.546 1260.95 117.509 1264.03 120.831C1267.1 124.154 1270.61 125.742 1274.55 125.591L1274.57 126.154C1270.63 126.305 1267.25 128.156 1264.44 131.704C1261.63 135.252 1260.31 139.324 1260.48 143.924Z" fill="#DCC3FC"/>
<path d="M1355.29 122.512C1355.96 139.995 1346.72 148.851 1324.63 149.696C1302.47 150.544 1292.65 142.489 1291.98 124.934L1291.02 99.8244L1309.73 99.1089L1310.69 124.219C1310.89 129.615 1313.02 134.289 1324.02 133.868C1335.03 133.447 1336.79 128.552 1336.59 123.228L1335.63 98.1181L1354.33 97.4026L1355.29 122.512ZM1358.41 147.683L1381.26 121.591L1356.49 97.3202L1380.95 96.3845L1394.16 110.29L1406.27 95.4157L1430.74 94.48L1407.88 120.573L1432.66 144.843L1408.2 145.779L1394.99 131.874L1382.87 146.748L1358.41 147.683Z" fill="white"/>
<path fill-rule="evenodd" clip-rule="evenodd" d="M1464.34 136.126L1463.85 136.145C1463.68 131.548 1462.05 127.586 1458.97 124.263C1455.9 120.94 1452.39 119.353 1448.45 119.503L1448.43 118.94C1452.37 118.789 1455.74 116.938 1458.56 113.382C1461.37 109.825 1462.69 105.753 1462.52 101.17L1463 101.152C1463.17 105.748 1464.8 109.711 1467.88 113.034C1470.95 116.356 1474.46 117.944 1478.4 117.793L1478.43 118.357C1474.49 118.507 1471.11 120.358 1468.29 123.906C1465.48 127.454 1464.16 131.527 1464.34 136.126Z" fill="#DCC3FC"/>
<path d="M1545.12 115.323C1549.74 117.524 1552.46 120.878 1552.65 125.843C1553.11 137.642 1543.09 141.34 1525.39 142.017C1507.9 142.686 1495.98 139.827 1495.35 123.351L1514.05 122.636C1514.21 126.593 1518.52 126.428 1525.5 126.161C1532.12 125.908 1533.92 125.839 1533.82 123.249C1533.7 120.083 1531.9 120.152 1518.09 120.68L1517.76 112.047C1531.57 111.518 1533.37 111.449 1533.25 108.284C1533.15 105.694 1531.35 105.762 1524.73 106.016C1517.75 106.283 1513.44 106.448 1513.59 110.405L1494.88 111.12C1494.25 94.6444 1505.92 90.8835 1523.41 90.2148C1541.11 89.5377 1551.38 92.4593 1551.83 104.259C1552.02 109.223 1549.56 112.776 1545.12 115.323ZM1590.88 88.3542C1603.04 87.8891 1614.79 95.5097 1615.44 112.633C1616.1 129.757 1604.97 138.252 1592.81 138.717L1555.4 140.149L1553.47 89.7853L1590.88 88.3542ZM1586.45 123.109C1590.48 122.955 1597.09 122.702 1596.74 113.349C1596.38 103.996 1589.76 104.249 1585.73 104.403L1572.78 104.898L1573.5 123.605L1586.45 123.109ZM1722.57 83.317L1724.49 133.68L1705.79 134.396L1704.87 110.437L1692.05 134.921L1679.82 135.389L1665.16 111.956L1666.07 135.915L1647.37 136.63L1645.44 86.2673L1668.46 85.3866L1685.11 113.571L1699.54 84.1977L1722.57 83.317ZM1757.66 133.132C1735.5 133.98 1725.68 125.925 1725.01 108.37C1724.34 90.8869 1733.52 82.1777 1755.68 81.3301C1777.76 80.4852 1787.65 88.537 1788.32 105.948C1788.99 123.431 1779.74 132.287 1757.66 133.132ZM1757.05 117.304C1768.06 116.883 1769.82 111.988 1769.61 106.664C1769.41 101.412 1767.36 96.7347 1756.28 97.1585C1745.2 97.5823 1743.51 102.33 1743.71 107.655C1743.92 113.051 1746.04 117.725 1757.05 117.304ZM1826.96 79.3239C1839.12 78.8588 1850.87 86.4793 1851.52 103.603C1852.18 120.726 1841.04 129.222 1828.89 129.687L1791.47 131.118L1789.55 80.755L1826.96 79.3239ZM1822.52 114.079C1826.55 113.925 1833.17 113.671 1832.81 104.318C1832.46 94.9651 1825.84 95.2183 1821.81 95.3725L1808.86 95.8678L1809.57 114.574L1822.52 114.079ZM1906.5 90.6917L1871.97 92.0127L1872.15 96.6893L1906.68 95.3683L1907.15 107.599L1872.61 108.92L1872.79 113.597L1907.33 112.276L1907.88 126.665L1854.64 128.702L1852.71 78.3388L1905.95 76.3022L1906.5 90.6917ZM1928.1 110.04L1961.2 108.774L1961.81 124.603L1910 126.584L1908.08 76.221L1926.78 75.5054L1928.1 110.04ZM1980.74 73.4413L1982.67 123.804L1963.96 124.52L1962.04 74.1569L1980.74 73.4413ZM2029.8 71.5649L2048.5 70.8494L2050.43 121.213L2025.97 122.148L2003.1 93.2651L2004.24 122.979L1985.53 123.695L1983.61 73.3318L2008.07 72.396L2030.93 101.279L2029.8 71.5649ZM2081.68 102.652L2081.3 92.5797L2113.96 91.3302L2115.01 118.742L2104.22 119.155L2102.57 111.941C2098.52 117.067 2092.02 120.342 2081.44 120.747C2062.88 121.457 2051.62 113.457 2050.95 95.9023C2050.28 78.419 2060.9 69.6548 2081.62 68.8622C2101.76 68.0916 2112.54 74.7407 2113.85 88.4523L2094.71 89.1844C2093.9 86.6218 2090.14 84.3879 2082.22 84.6906C2071.14 85.1145 2069.45 89.8626 2069.68 95.9062C2069.92 102.022 2072.07 107.415 2083.08 106.994C2090.27 106.719 2094.62 105.544 2095.21 102.135L2081.68 102.652Z" fill="white"/>
</svg>
