<svg width="1920" height="267" viewBox="0 0 1920 267" fill="none" xmlns="http://www.w3.org/2000/svg">
<rect width="2616" height="109" transform="translate(-657.414) rotate(3.46382)" fill="#334155"/>
<path d="M17.6498 95.4966C16.7102 111.02 7.75744 118.044 -11.8547 116.857C-31.5307 115.666 -39.5108 107.681 -38.5673 92.0939L-37.2178 69.7987L-20.6082 70.8041L-21.9577 93.0993C-22.2477 97.8905 -20.7781 102.211 -11.004 102.803C-1.22987 103.394 0.754048 99.2186 1.04019 94.4913L2.38969 72.1961L18.9993 73.2015L17.6498 95.4966ZM38.1592 74.3612L35.4525 119.079L18.8429 118.074L21.5496 73.3558L38.1592 74.3612Z" fill="white"/>
<path fill-rule="evenodd" clip-rule="evenodd" d="M69.1402 116.109L68.6577 116.08C68.9356 111.488 67.7067 107.385 64.973 103.775C62.2394 100.166 58.9048 98.2402 54.9667 98.0018L55.0007 97.4389C58.9388 97.6773 62.4813 96.1681 65.6309 92.906C68.7806 89.6439 70.4953 85.7214 70.7724 81.144L71.2549 81.1732C70.9769 85.7648 72.2059 89.8684 74.9396 93.478C77.6732 97.0877 81.0078 99.0131 84.9459 99.2514L84.9119 99.8144C80.9762 99.5761 77.4313 101.085 74.2822 104.339C71.1331 107.592 69.4183 111.515 69.1402 116.109Z" fill="#DCC3FC"/>
<path d="M151.072 101.008C154.799 104.055 157.362 108.313 157.069 113.168C156.624 120.515 151.86 126.125 141.703 125.511L100.818 123.036L103.524 78.3176L142.493 80.6763C152.65 81.2912 155.502 86.0802 155.092 92.8518C154.918 95.7266 153.399 98.584 151.072 101.008ZM119.477 90.1831L119.183 95.0382L134.515 95.9662C136.176 96.0668 138.22 96.1905 138.367 93.763C138.514 91.3354 136.47 91.2117 134.809 91.1111L119.477 90.1831ZM136.688 113.025C138.349 113.125 140.393 113.249 140.536 110.885C140.679 108.522 138.635 108.398 136.974 108.297L118.448 107.176L118.162 111.903L136.688 113.025ZM212.139 102.075C211.745 108.591 208.418 113.776 203.325 116.353L210.469 129.673L190.793 128.482L185.23 117.63L175.456 117.038L174.822 127.515L158.213 126.51L160.919 81.7917L196.055 83.9184C206.212 84.5332 212.743 92.1096 212.139 102.075ZM176.678 96.8513L176.307 102.984L191.639 103.912C193.3 104.013 195.344 104.136 195.53 101.07C195.715 98.0036 193.671 97.8799 192.01 97.7793L176.678 96.8513ZM255.165 132.378L252.586 124.143L233.549 122.991L229.995 130.855L211.725 129.749L232.957 86.1521L257.616 87.6446L273.436 133.484L255.165 132.378ZM238.589 111.755L248.938 112.381L244.591 98.3973L238.589 111.755ZM318.469 91.328L335.079 92.3333L332.372 137.051L310.652 135.737L292.956 108.185L291.359 134.569L274.749 133.564L277.456 88.8455L299.176 90.1602L316.872 117.712L318.469 91.328ZM370.878 94.5002C381.674 95.1537 391.398 102.923 390.478 118.128C389.558 133.332 378.967 139.872 368.171 139.218L334.952 137.208L337.658 92.4895L370.878 94.5002ZM363.911 124.855C367.488 125.071 373.366 125.427 373.868 117.122C374.371 108.817 368.494 108.462 364.916 108.245L353.417 107.549L352.412 124.159L363.911 124.855ZM410.353 96.8896L407.646 141.608L391.036 140.602L393.743 95.8842L410.353 96.8896ZM453.909 99.526L470.518 100.531L467.811 145.249L446.091 143.935L428.395 116.383L426.799 142.767L410.189 141.762L412.896 97.0435L434.616 98.3582L452.312 125.91L453.909 99.526ZM497.083 131.569L497.624 122.625L526.627 124.381L525.154 148.72L515.572 148.14L514.748 141.615C510.712 145.794 504.673 148.122 495.282 147.553C478.8 146.556 469.542 138.494 470.486 122.906C471.425 107.383 481.584 100.56 499.982 101.674C517.87 102.756 526.818 109.581 526.782 121.826L509.789 120.797C509.289 118.459 506.159 116.153 499.132 115.728C489.294 115.132 487.382 119.184 487.057 124.55C486.728 129.981 488.159 134.94 497.933 135.532C504.321 135.918 508.272 135.26 509.093 132.296L497.083 131.569Z" fill="white"/>
<path fill-rule="evenodd" clip-rule="evenodd" d="M558.245 145.714L557.762 145.685C558.04 141.093 556.811 136.99 554.078 133.38C551.344 129.771 548.009 127.845 544.071 127.607L544.105 127.044C548.043 127.282 551.586 125.773 554.735 122.511C557.885 119.249 559.6 115.326 559.877 110.749L560.359 110.778C560.081 115.37 561.31 119.473 564.044 123.083C566.778 126.693 570.112 128.618 574.05 128.856L574.016 129.419C570.081 129.181 566.536 130.69 563.387 133.944C560.238 137.197 558.523 141.12 558.245 145.714Z" fill="#DCC3FC"/>
<path d="M647.496 133.621C646.557 149.144 637.604 156.168 617.992 154.981C598.316 153.79 590.336 145.805 591.279 130.218L592.629 107.923L609.238 108.928L607.889 131.223C607.599 136.014 609.069 140.335 618.843 140.927C628.617 141.518 630.601 137.343 630.887 132.615L632.236 110.32L648.846 111.325L647.496 133.621ZM648.051 156.159L670.549 135.08L650.757 111.441L672.478 112.756L682.948 126.213L694.965 114.117L716.685 115.432L694.186 136.511L713.978 160.15L692.258 158.835L681.788 145.378L669.771 157.474L648.051 156.159Z" fill="white"/>
<path fill-rule="evenodd" clip-rule="evenodd" d="M746.9 157.133L746.417 157.104C746.695 152.512 745.466 148.409 742.733 144.799C739.999 141.189 736.665 139.264 732.726 139.026L732.76 138.463C736.699 138.701 740.241 137.192 743.391 133.93C746.54 130.668 748.255 126.745 748.532 122.168L749.015 122.197C748.737 126.789 749.966 130.892 752.699 134.502C755.433 138.112 758.768 140.037 762.706 140.275L762.672 140.838C758.736 140.6 755.191 142.109 752.042 145.363C748.893 148.616 747.178 152.539 746.9 157.133Z" fill="#DCC3FC"/>
<path d="M823.69 144.349C827.587 146.701 829.701 149.907 829.434 154.315C828.8 164.792 819.615 167.185 803.899 166.234C788.376 165.294 778.077 161.721 778.962 147.092L795.572 148.097C795.359 151.611 799.192 151.843 805.389 152.218C811.266 152.574 812.863 152.671 813.002 150.371C813.173 147.56 811.575 147.463 799.31 146.721L799.774 139.055C812.039 139.797 813.637 139.894 813.807 137.083C813.946 134.783 812.349 134.687 806.472 134.331C800.275 133.956 796.442 133.724 796.229 137.237L779.62 136.232C780.505 121.603 791.16 119.298 806.683 120.238C822.399 121.189 831.228 124.673 830.594 135.15C830.327 139.558 827.842 142.485 823.69 144.349ZM866.532 124.502C877.328 125.155 887.053 132.925 886.132 148.129C885.212 163.333 874.622 169.873 863.825 169.22L830.606 167.209L833.313 122.491L866.532 124.502ZM859.565 154.856C863.143 155.073 869.02 155.429 869.523 147.124C870.025 138.819 864.148 138.463 860.571 138.247L849.072 137.551L848.066 154.16L859.565 154.856ZM983.459 131.579L980.752 176.297L964.142 175.292L965.43 154.019L951.941 174.553L941.08 173.896L930.166 151.884L928.879 173.157L912.269 172.152L914.976 127.434L935.419 128.671L947.671 155.06L963.016 130.342L983.459 131.579ZM1010.13 178.717C990.458 177.526 982.478 169.541 983.421 153.954C984.361 138.43 993.242 131.53 1012.92 132.721C1032.53 133.908 1040.57 141.897 1039.64 157.356C1038.7 172.88 1029.75 179.904 1010.13 178.717ZM1010.98 164.663C1020.76 165.254 1022.74 161.078 1023.03 156.351C1023.31 151.688 1021.91 147.371 1012.07 146.775C1002.23 146.18 1000.32 150.232 1000.03 154.959C999.741 159.75 1001.21 164.071 1010.98 164.663ZM1076.15 137.19C1086.94 137.843 1096.67 145.613 1095.75 160.817C1094.83 176.021 1084.24 182.561 1073.44 181.908L1040.22 179.897L1042.93 135.179L1076.15 137.19ZM1069.18 167.544C1072.76 167.761 1078.64 168.116 1079.14 159.812C1079.64 151.507 1073.76 151.151 1070.19 150.934L1058.69 150.238L1057.68 166.848L1069.18 167.544ZM1145.51 154.212L1114.85 152.356L1114.6 156.508L1145.26 158.364L1144.61 169.224L1113.94 167.368L1113.69 171.52L1144.35 173.377L1143.58 186.153L1096.31 183.292L1099.01 138.574L1146.29 141.435L1145.51 154.212ZM1162.93 173.218L1192.31 174.997L1191.46 189.051L1145.47 186.267L1148.17 141.549L1164.78 142.555L1162.93 173.218ZM1212.7 145.455L1209.99 190.173L1193.38 189.167L1196.09 144.449L1212.7 145.455ZM1256.25 148.091L1272.86 149.096L1270.15 193.814L1248.43 192.5L1230.74 164.948L1229.14 191.332L1212.53 190.327L1215.24 145.609L1236.96 146.923L1254.65 174.475L1256.25 148.091ZM1299.43 180.134L1299.97 171.19L1328.97 172.946L1327.5 197.285L1317.91 196.705L1317.09 190.18C1313.06 194.359 1307.02 196.687 1297.63 196.118C1281.14 195.121 1271.89 187.059 1272.83 171.471C1273.77 155.948 1283.93 149.125 1302.33 150.239C1320.21 151.321 1329.16 158.146 1329.13 170.391L1312.13 169.362C1311.63 167.024 1308.5 164.718 1301.48 164.293C1291.64 163.697 1289.72 167.749 1289.4 173.115C1289.07 178.546 1290.5 183.505 1300.28 184.097C1306.66 184.483 1310.62 183.825 1311.44 180.861L1299.43 180.134Z" fill="white"/>
<path fill-rule="evenodd" clip-rule="evenodd" d="M1359.78 194.23L1359.29 194.201C1359.57 189.609 1358.34 185.506 1355.61 181.896C1352.88 178.286 1349.54 176.361 1345.6 176.123L1345.64 175.56C1349.58 175.798 1353.12 174.289 1356.27 171.027C1359.42 167.765 1361.13 163.842 1361.41 159.265L1361.89 159.294C1361.61 163.886 1362.84 167.989 1365.58 171.599C1368.31 175.208 1371.64 177.134 1375.58 177.372L1375.55 177.935C1371.61 177.697 1368.07 179.206 1364.92 182.459C1361.77 185.713 1360.06 189.636 1359.78 194.23Z" fill="#DCC3FC"/>
<path d="M1469.1 160.974L1486.92 162.053L1469.52 205.882L1444.86 204.389L1439.07 178.2L1430.17 203.5L1405.51 202.007L1393.52 156.4L1411.35 157.479L1418.7 189.598L1430.32 158.627L1450.12 159.826L1457.92 191.972L1469.1 160.974ZM1535.36 177.809L1504.7 175.953L1504.45 180.105L1535.11 181.961L1534.46 192.821L1503.79 190.965L1503.54 195.118L1534.2 196.974L1533.43 209.75L1486.16 206.889L1488.86 162.171L1536.14 165.032L1535.36 177.809ZM1585.57 187.836C1589.3 190.883 1591.86 195.142 1591.57 199.997C1591.12 207.344 1586.36 212.954 1576.2 212.339L1535.32 209.864L1538.02 165.146L1576.99 167.505C1587.15 168.12 1590 172.909 1589.59 179.68C1589.42 182.555 1587.9 185.413 1585.57 187.836ZM1553.98 177.012L1553.68 181.867L1569.01 182.795C1570.68 182.895 1572.72 183.019 1572.87 180.592C1573.01 178.164 1570.97 178.04 1569.31 177.94L1553.98 177.012ZM1571.19 199.853C1572.85 199.954 1574.89 200.078 1575.04 197.714C1575.18 195.35 1573.13 195.227 1571.47 195.126L1552.95 194.005L1552.66 198.732L1571.19 199.853ZM1654.22 172.179C1665.01 172.833 1674.74 180.602 1673.82 195.807C1672.9 211.011 1662.31 217.551 1651.51 216.897L1618.29 214.887L1621 170.169L1654.22 172.179ZM1647.25 202.534C1650.83 202.75 1656.7 203.106 1657.21 194.801C1657.71 186.496 1651.83 186.141 1648.25 185.924L1636.76 185.228L1635.75 201.838L1647.25 202.534ZM1723.58 189.201L1692.92 187.345L1692.67 191.498L1723.33 193.354L1722.67 204.214L1692.01 202.358L1691.76 206.51L1722.42 208.366L1721.65 221.143L1674.38 218.281L1677.08 173.563L1724.36 176.425L1723.58 189.201ZM1723.85 205.439L1740.46 206.445C1740.33 208.617 1742.28 210.21 1752.83 210.848C1762.66 211.443 1764.17 210.893 1764.27 209.232C1764.39 207.316 1762.93 206.971 1752.48 206.018C1732.33 204.157 1724.8 200.367 1725.43 189.954C1726.03 180.116 1735.93 176.484 1753.56 177.551C1771 178.607 1780.58 183.419 1779.89 194.854L1763.28 193.848C1763.42 191.485 1759.62 190.742 1751.51 190.25C1743.71 189.779 1742.09 190.065 1741.99 191.79C1741.88 193.515 1743.49 193.548 1753.17 194.519C1770.76 196.289 1781.61 198.164 1780.9 209.854C1780.16 222.184 1769.75 224.695 1751.41 223.586C1733.08 222.476 1723.05 218.727 1723.85 205.439ZM1801.24 181.079L1798.54 225.797L1781.93 224.791L1784.63 180.073L1801.24 181.079ZM1827.77 212.114L1828.31 203.171L1857.32 204.926L1855.84 229.265L1846.26 228.685L1845.44 222.16C1841.4 226.34 1835.36 228.667 1825.97 228.099C1809.49 227.101 1800.23 219.039 1801.18 203.451C1802.11 187.928 1812.27 181.105 1830.67 182.219C1848.56 183.301 1857.51 190.127 1857.47 202.371L1840.48 201.342C1839.98 199.004 1836.85 196.698 1829.82 196.273C1819.98 195.678 1818.07 199.729 1817.75 205.096C1817.42 210.526 1818.85 215.485 1828.62 216.077C1835.01 216.463 1838.96 215.805 1839.78 212.841L1827.77 212.114ZM1901.51 187.148L1918.12 188.153L1915.41 232.871L1893.69 231.556L1876 204.005L1874.4 230.389L1857.79 229.383L1860.5 184.665L1882.22 185.98L1899.91 213.531L1901.51 187.148Z" fill="white"/>
<rect width="2616" height="129" transform="translate(-93.0557 102.134) rotate(-2.1906)" fill="#9444F1"/>
<path d="M16.8302 140.161L34.6732 139.479L21.6764 184.809L-3.00959 185.753L-11.3501 160.261L-17.7188 186.316L-42.4048 187.26L-58.8265 143.055L-40.9835 142.373L-30.5018 173.611L-21.9894 141.646L-2.16389 140.888L8.76549 172.109L16.8302 140.161ZM84.4334 150.385L53.7358 151.559L53.8949 155.716L84.5924 154.542L85.0083 165.414L54.3107 166.588L54.4697 170.745L85.1673 169.571L85.6566 182.361L38.3312 184.172L36.6187 139.404L83.9441 137.594L84.4334 150.385ZM135.385 155.417C139.394 158.082 142.364 162.067 142.55 166.927C142.832 174.282 138.644 180.334 128.475 180.723L87.5452 182.289L85.8327 137.522L124.844 136.03C135.013 135.641 138.323 140.125 138.582 146.904C138.692 149.782 137.462 152.775 135.385 155.417ZM102.876 147.758L103.062 152.618L118.411 152.031C120.074 151.968 122.12 151.889 122.027 149.459C121.935 147.029 119.888 147.107 118.225 147.171L102.876 147.758ZM122.255 168.792C123.917 168.729 125.964 168.651 125.873 166.284C125.783 163.918 123.736 163.996 122.074 164.06L103.527 164.769L103.708 169.502L122.255 168.792ZM202.153 133.072C212.961 132.659 223.403 139.433 223.986 154.654C224.568 169.874 214.673 177.426 203.865 177.84L170.609 179.112L168.897 134.344L202.153 133.072ZM198.211 163.966C201.792 163.829 207.676 163.604 207.358 155.29C207.04 146.976 201.156 147.201 197.575 147.338L186.063 147.778L186.699 164.406L198.211 163.966ZM272.858 143.177L242.161 144.351L242.32 148.508L273.017 147.334L273.433 158.206L242.735 159.38L242.894 163.537L273.592 162.363L274.081 175.154L226.756 176.964L225.043 132.197L272.369 130.386L272.858 143.177ZM274.726 159.309L291.354 158.673C291.437 160.848 293.54 162.24 304.092 161.837C313.941 161.46 315.387 160.764 315.324 159.102C315.25 157.183 313.77 156.983 303.269 157.065C283.035 157.198 275.17 154.169 274.771 143.744C274.394 133.896 283.89 129.305 301.541 128.63C319 127.962 329.01 131.806 329.448 143.254L312.821 143.89C312.73 141.524 308.873 141.159 300.751 141.47C292.949 141.768 291.365 142.213 291.431 143.94C291.497 145.666 293.093 145.541 302.829 145.553C320.507 145.582 331.489 146.378 331.937 158.082C332.409 170.425 322.296 173.95 303.942 174.652C285.587 175.354 275.235 172.612 274.726 159.309ZM349.343 127.442L351.055 172.209L334.427 172.845L332.715 128.078L349.343 127.442ZM378.799 155.713L378.457 146.759L407.491 145.649L408.424 170.015L398.831 170.382L397.368 163.969C393.764 168.526 387.983 171.437 378.582 171.797C362.082 172.428 352.075 165.317 351.478 149.713C350.883 134.172 360.321 126.382 378.739 125.677C396.646 124.992 406.223 130.902 407.394 143.091L390.382 143.741C389.654 141.463 386.312 139.478 379.277 139.747C369.428 140.124 367.925 144.344 368.13 149.716C368.338 155.152 370.251 159.947 380.036 159.572C386.431 159.328 390.298 158.283 390.822 155.253L378.799 155.713ZM449.717 123.603L466.345 122.967L468.057 167.734L446.313 168.566L425.989 142.892L426.999 169.304L410.372 169.94L408.659 125.173L430.403 124.341L450.727 150.015L449.717 123.603Z" fill="white"/>
<path fill-rule="evenodd" clip-rule="evenodd" d="M500.889 161.474L500.406 161.493C500.23 156.896 498.603 152.934 495.527 149.611C492.451 146.288 488.942 144.701 485 144.852L484.978 144.288C488.921 144.137 492.297 142.286 495.11 138.73C497.923 135.173 499.243 131.101 499.068 126.518L499.551 126.5C499.727 131.097 501.354 135.059 504.43 138.382C507.506 141.705 511.014 143.292 514.957 143.141L514.978 143.705C511.038 143.856 507.659 145.706 504.846 149.254C502.033 152.802 500.713 156.875 500.889 161.474Z" fill="#DCC3FC"/>
<path d="M588.514 140.646C589.109 156.186 580.891 164.058 561.258 164.809C541.56 165.563 532.832 158.403 532.235 142.798L531.381 120.479L548.009 119.843L548.863 142.162C549.047 146.959 550.935 151.114 560.72 150.74C570.504 150.365 572.067 146.014 571.886 141.282L571.032 118.962L587.66 118.326L588.514 140.646ZM606.841 117.592L608.554 162.36L591.926 162.996L590.213 118.228L606.841 117.592Z" fill="white"/>
<path fill-rule="evenodd" clip-rule="evenodd" d="M641.785 156.085L641.302 156.103C641.126 151.507 639.499 147.544 636.423 144.221C633.347 140.899 629.839 139.311 625.896 139.462L625.875 138.898C629.817 138.748 633.194 136.897 636.007 133.34C638.82 129.784 640.14 125.711 639.964 121.129L640.447 121.11C640.623 125.707 642.25 129.67 645.326 132.992C648.403 136.315 651.911 137.903 655.853 137.752L655.875 138.315C651.935 138.466 648.556 140.317 645.742 143.865C642.929 147.413 641.609 151.485 641.785 156.085Z" fill="#DCC3FC"/>
<path d="M721.831 132.984C725.84 135.649 728.81 139.634 728.996 144.495C729.278 151.849 725.09 157.902 714.921 158.291L673.991 159.856L672.279 115.089L711.29 113.597C721.459 113.208 724.769 117.693 725.028 124.472C725.138 127.35 723.908 130.343 721.831 132.984ZM689.323 125.325L689.509 130.186L704.857 129.598C706.52 129.535 708.567 129.457 708.474 127.026C708.381 124.596 706.334 124.674 704.671 124.738L689.323 125.325ZM708.701 146.36C710.364 146.296 712.41 146.218 712.32 143.852C712.229 141.485 710.183 141.564 708.52 141.627L689.973 142.337L690.154 147.069L708.701 146.36ZM782.706 128.03C782.956 134.553 780.155 140.04 775.341 143.106L783.763 155.657L764.065 156.411L757.461 146.16L747.676 146.534L748.077 157.023L731.449 157.659L729.737 112.891L764.911 111.546C775.08 111.157 782.325 118.053 782.706 128.03ZM746.903 126.325L747.138 132.464L762.487 131.877C764.149 131.814 766.196 131.735 766.078 128.666C765.961 125.596 763.914 125.674 762.252 125.738L746.903 126.325ZM828.508 153.946L825.13 146.005L806.072 146.734L803.311 154.91L785.02 155.609L801.854 110.133L826.54 109.188L846.799 153.246L828.508 153.946ZM809.981 135.056L820.341 134.66L814.637 121.172L809.981 135.056ZM887.46 106.858L904.087 106.222L905.8 150.989L884.056 151.821L863.731 126.147L864.742 152.56L848.114 153.196L846.402 108.429L868.146 107.597L888.47 133.271L887.46 106.858ZM939.926 104.851C950.734 104.438 961.176 111.212 961.759 126.432C962.341 141.653 952.446 149.205 941.638 149.618L908.382 150.891L906.67 106.123L939.926 104.851ZM935.984 135.744C939.565 135.607 945.449 135.382 945.131 127.068C944.813 118.755 938.929 118.98 935.348 119.117L923.836 119.557L924.472 136.185L935.984 135.744ZM979.444 103.34L981.157 148.107L964.529 148.743L962.816 103.976L979.444 103.34ZM1023.05 101.672L1039.68 101.036L1041.39 145.803L1019.64 146.635L999.32 120.961L1000.33 147.373L983.702 148.009L981.99 103.242L1003.73 102.41L1024.06 128.084L1023.05 101.672ZM1069.17 129.305L1068.83 120.351L1097.86 119.241L1098.79 143.607L1089.2 143.974L1087.74 137.561C1084.13 142.118 1078.35 145.029 1068.95 145.389C1052.45 146.02 1042.44 138.909 1041.85 123.305C1041.25 107.764 1050.69 99.9738 1069.11 99.2692C1087.02 98.5842 1096.59 104.494 1097.76 116.683L1080.75 117.333C1080.02 115.056 1076.68 113.07 1069.65 113.339C1059.8 113.716 1058.29 117.936 1058.5 123.308C1058.71 128.744 1060.62 133.539 1070.41 133.164C1076.8 132.92 1080.67 131.875 1081.19 128.845L1069.17 129.305Z" fill="white"/>
<path fill-rule="evenodd" clip-rule="evenodd" d="M1131.43 137.355L1130.94 137.374C1130.77 132.777 1129.14 128.814 1126.07 125.492C1122.99 122.169 1119.48 120.581 1115.54 120.732L1115.52 120.169C1119.46 120.018 1122.84 118.167 1125.65 114.611C1128.46 111.054 1129.78 106.982 1129.61 102.399L1130.09 102.381C1130.27 106.977 1131.89 110.94 1134.97 114.263C1138.05 117.585 1141.55 119.173 1145.5 119.022L1145.52 119.586C1141.58 119.736 1138.2 121.587 1135.38 125.135C1132.57 128.683 1131.25 132.756 1131.43 137.355Z" fill="#DCC3FC"/>
<path d="M1219.05 116.526C1219.65 132.067 1211.43 139.939 1191.8 140.69C1172.1 141.443 1163.37 134.284 1162.78 118.679L1161.92 96.3595L1178.55 95.7235L1179.4 118.043C1179.59 122.84 1181.47 126.995 1191.26 126.62C1201.04 126.246 1202.61 121.895 1202.43 117.162L1201.57 94.8428L1218.2 94.2068L1219.05 116.526ZM1221.83 138.901L1242.14 115.707L1220.11 94.1336L1241.86 93.3018L1253.6 105.662L1264.37 92.4407L1286.11 91.609L1265.8 114.802L1287.83 136.376L1266.08 137.208L1254.34 124.848L1243.57 138.069L1221.83 138.901Z" fill="white"/>
<path fill-rule="evenodd" clip-rule="evenodd" d="M1320.29 130.131L1319.81 130.149C1319.63 125.553 1318 121.59 1314.93 118.267C1311.85 114.945 1308.34 113.357 1304.4 113.508L1304.38 112.944C1308.32 112.794 1311.7 110.943 1314.51 107.386C1317.32 103.83 1318.64 99.7572 1318.47 95.1748L1318.95 95.1563C1319.13 99.7529 1320.75 103.715 1323.83 107.038C1326.91 110.361 1330.41 111.948 1334.36 111.798L1334.38 112.361C1330.44 112.512 1327.06 114.363 1324.25 117.911C1321.43 121.459 1320.11 125.531 1320.29 130.131Z" fill="#DCC3FC"/>
<path d="M1395.45 109.843C1399.56 111.799 1401.98 114.781 1402.15 119.194C1402.55 129.682 1393.64 132.969 1377.91 133.571C1362.37 134.165 1351.77 131.625 1351.21 116.979L1367.84 116.343C1367.97 119.861 1371.81 119.714 1378.01 119.477C1383.89 119.252 1385.49 119.19 1385.4 116.888C1385.3 114.074 1383.7 114.135 1371.42 114.605L1371.13 106.931C1383.4 106.461 1385 106.4 1384.9 103.586C1384.81 101.283 1383.21 101.345 1377.33 101.57C1371.12 101.807 1367.28 101.954 1367.42 105.471L1350.79 106.107C1350.23 91.462 1360.61 88.1189 1376.15 87.5245C1391.88 86.9227 1401.01 89.5196 1401.41 100.008C1401.58 104.421 1399.4 107.579 1395.45 109.843ZM1436.13 85.8707C1446.93 85.4572 1457.38 92.231 1457.96 107.452C1458.54 122.673 1448.65 130.225 1437.84 130.638L1404.58 131.91L1402.87 87.1428L1436.13 85.8707ZM1432.18 116.764C1435.76 116.627 1441.65 116.402 1441.33 108.088C1441.01 99.774 1435.13 99.9991 1431.55 100.136L1420.04 100.576L1420.67 117.204L1432.18 116.764ZM1553.18 81.3931L1554.89 126.16L1538.26 126.796L1537.45 105.5L1526.05 127.264L1515.18 127.68L1502.15 106.85L1502.96 128.147L1486.33 128.783L1484.62 84.0156L1505.09 83.2327L1519.88 108.286L1532.72 82.1759L1553.18 81.3931ZM1584.37 125.673C1564.67 126.427 1555.94 119.267 1555.35 103.663C1554.75 88.1219 1562.91 80.3804 1582.61 79.6269C1602.24 78.8759 1611.03 86.0331 1611.63 101.51C1612.22 117.05 1604 124.922 1584.37 125.673ZM1583.83 111.604C1593.62 111.229 1595.18 106.878 1595 102.146C1594.82 97.4772 1593 93.3199 1583.15 93.6967C1573.3 94.0734 1571.79 98.294 1571.98 103.026C1572.16 107.823 1574.05 111.978 1583.83 111.604ZM1645.97 77.8437C1656.78 77.4302 1667.22 84.204 1667.8 99.4249C1668.39 114.646 1658.49 122.197 1647.68 122.611L1614.43 123.883L1612.72 79.1158L1645.97 77.8437ZM1642.03 108.737C1645.61 108.6 1651.49 108.375 1651.18 100.061C1650.86 91.747 1644.98 91.9721 1641.39 92.1091L1629.88 92.5494L1630.52 109.177L1642.03 108.737ZM1716.68 87.9484L1685.98 89.1227L1686.14 93.2796L1716.84 92.1054L1717.25 102.977L1686.55 104.152L1686.71 108.309L1717.41 107.134L1717.9 119.925L1670.58 121.735L1668.86 76.968L1716.19 75.1578L1716.68 87.9484ZM1735.88 105.147L1765.3 104.022L1765.84 118.091L1719.79 119.853L1718.08 75.0855L1734.7 74.4495L1735.88 105.147ZM1782.67 72.6147L1784.38 117.382L1767.75 118.018L1766.04 73.2508L1782.67 72.6147ZM1826.27 70.9468L1842.9 70.3108L1844.61 115.078L1822.87 115.91L1802.55 90.2359L1803.56 116.649L1786.93 117.285L1785.22 72.5174L1806.96 71.6856L1827.28 97.3595L1826.27 70.9468ZM1872.39 98.5801L1872.05 89.6266L1901.09 88.516L1902.02 112.882L1892.43 113.249L1890.96 106.836C1887.36 111.393 1881.58 114.305 1872.18 114.664C1855.68 115.295 1845.67 108.185 1845.07 92.58C1844.48 77.0394 1853.92 69.249 1872.33 68.5444C1890.24 67.8595 1899.82 73.7697 1900.99 85.9579L1883.98 86.6086C1883.25 84.3307 1879.91 82.345 1872.87 82.6141C1863.02 82.9909 1861.52 87.2114 1861.73 92.5835C1861.93 98.0195 1863.85 102.814 1873.63 102.44C1880.03 102.195 1883.89 101.15 1884.42 98.1202L1872.39 98.5801Z" fill="white"/>
<path fill-rule="evenodd" clip-rule="evenodd" d="M1933.84 106.661L1933.36 106.68C1933.18 102.083 1931.55 98.1207 1928.48 94.7979C1925.4 91.4752 1921.89 89.8877 1917.95 90.0385L1917.93 89.475C1921.87 89.3242 1925.25 87.4734 1928.06 83.9168C1930.87 80.3602 1932.19 76.2878 1932.02 71.7054L1932.5 71.6869C1932.68 76.2836 1934.31 80.2461 1937.38 83.5689C1940.46 86.8916 1943.97 88.4791 1947.91 88.3283L1947.93 88.8918C1943.99 89.0425 1940.61 90.8934 1937.8 94.4414C1934.98 97.9895 1933.66 102.062 1933.84 106.661Z" fill="#DCC3FC"/>
</svg>
