<svg width="135" height="40" viewBox="0 0 135 40" fill="none" xmlns="http://www.w3.org/2000/svg">
<path d="M14.664 35.656L15.392 38.776C14.092 39.504 12.116 39.868 9.62 39.868C1.612 39.868 0.78 36.124 0.78 29.052V13.972C0.78 6.9 1.716 3.052 9.36 3.052C16.692 3.052 17.576 6.588 17.576 13.712V25.932C17.576 29.156 16.016 30.82 13.26 30.82C11.908 30.82 11.18 30.456 10.712 29.78H10.504C9.828 30.664 9.1 30.82 8.372 30.82C6.24 30.82 5.616 29.208 5.616 26.192V17.144C5.616 13.608 5.772 11.58 8.164 11.58C9.1 11.58 9.828 11.944 10.348 12.672H10.504L10.712 11.788H12.896V27.44C12.896 27.804 13 28.168 13.676 28.168C14.3 28.168 14.456 27.752 14.456 26.92V13.764C14.456 7.836 13.78 6.172 9.412 6.172C4.576 6.172 4.056 7.94 4.056 13.972V29C4.056 34.772 4.628 36.436 9.62 36.436C11.388 36.436 13.104 36.228 14.664 35.656ZM8.632 15.324V26.556C8.632 27.648 8.892 27.908 9.412 27.908C9.932 27.908 10.192 27.648 10.192 26.4V15.428C10.192 14.648 9.984 14.388 9.464 14.388C8.892 14.388 8.632 14.648 8.632 15.324ZM26.4948 29.676V21.252H30.8108V29.676C30.8108 33.784 29.4588 35.76 25.3508 35.76C21.1908 35.76 19.2668 33.784 19.2668 29.676V3H24.2588V9.916H30.8108V14.44H24.2588V29.676C24.2588 30.716 24.6228 31.236 25.4028 31.236C26.1308 31.236 26.4948 30.716 26.4948 29.676ZM37.6155 35.5H32.5715V9.916H37.6155V35.5ZM37.6155 7.264H32.5715V2.636H37.6155V7.264ZM51.855 35.5H46.759V15.376C46.759 14.544 46.395 14.076 45.719 14.076C45.095 14.076 44.679 14.44 44.471 15.22V35.5H39.427V9.916H44.159L44.263 12.152H44.471C45.303 10.384 46.499 9.708 47.955 9.708C50.243 9.708 51.855 11.424 51.855 14.336V35.5ZM60.7177 30.508V22.708C60.3537 22.916 59.9377 23.02 59.4177 23.176C58.6377 23.384 58.3257 23.956 58.3257 24.788V30.196C58.3257 30.976 58.7417 31.392 59.5217 31.392C60.2497 31.392 60.5617 31.08 60.7177 30.508ZM65.7097 35.5H61.0297L60.9257 33.628H60.7177C60.2497 34.46 59.5217 35.76 57.1297 35.76C54.2177 35.76 53.3857 33.94 53.3857 31.548V25.724C53.3857 22.396 54.6857 21.148 58.0657 20.264C59.8857 19.796 60.6657 19.588 60.6657 18.444V15.064C60.6657 14.388 60.3017 14.024 59.5737 14.024C58.7937 14.024 58.3777 14.44 58.3777 15.22V18.236H53.6977V14.596C53.6977 11.268 56.0377 9.708 59.9377 9.708C63.7337 9.708 65.7097 11.164 65.7097 14.284V35.5ZM79.8862 35.5H74.7902V15.376C74.7902 14.492 74.4262 14.076 73.7502 14.076C73.0222 14.076 72.6062 14.596 72.5022 15.636V35.5H67.4582V0.555997H72.5022V11.788H72.7102C73.3342 10.384 74.4262 9.708 76.0382 9.708C78.8982 9.708 79.8862 11.892 79.8862 14.596V35.5Z" fill="#7C3AED"/>
<path d="M90.3683 35.5H83.7643L80.5923 9.916H85.6363L87.0923 27.908H87.3003L88.8083 9.916H93.5923L90.3683 35.5ZM101.19 30.508V22.708C100.826 22.916 100.41 23.02 99.8904 23.176C99.1104 23.384 98.7984 23.956 98.7984 24.788V30.196C98.7984 30.976 99.2144 31.392 99.9944 31.392C100.722 31.392 101.034 31.08 101.19 30.508ZM106.182 35.5H101.502L101.398 33.628H101.19C100.722 34.46 99.9944 35.76 97.6024 35.76C94.6904 35.76 93.8584 33.94 93.8584 31.548V25.724C93.8584 22.396 95.1584 21.148 98.5384 20.264C100.358 19.796 101.138 19.588 101.138 18.444V15.064C101.138 14.388 100.774 14.024 100.046 14.024C99.2664 14.024 98.8504 14.44 98.8504 15.22V18.236H94.1704V14.596C94.1704 11.268 96.5104 9.708 100.41 9.708C104.206 9.708 106.182 11.164 106.182 14.284V35.5ZM112.975 35.5H107.931V0.555997H112.975V35.5ZM119.83 35.5H114.786V9.916H119.83V35.5ZM119.83 7.264H114.786V2.636H119.83V7.264ZM134.07 35.5H128.974V15.376C128.974 14.492 128.61 14.076 127.934 14.076C127.206 14.076 126.79 14.596 126.686 15.636V35.5H121.642V0.555997H126.686V11.788H126.894C127.518 10.384 128.61 9.708 130.222 9.708C133.082 9.708 134.07 11.892 134.07 14.596V35.5Z" fill="#334155"/>
</svg>
